<?xml version="1.0" encoding="UTF-8" standalone="no"?>
<!DOCTYPE svg PUBLIC "-//W3C//DTD SVG 1.1//EN"
 "http://www.w3.org/Graphics/SVG/1.1/DTD/svg11.dtd">
<!-- Generated by graphviz version 2.40.1 (20161225.0304)
 -->
<!-- Title: CPU Pages: 1 -->
<svg width="747pt" height="161pt"
 viewBox="0.00 0.00 747.20 160.80" xmlns="http://www.w3.org/2000/svg" xmlns:xlink="http://www.w3.org/1999/xlink">
<g id="graph0" class="graph" transform="scale(1 1) rotate(0) translate(4 156.8)">
<title>CPU</title>
<polygon fill="#ffffff" stroke="transparent" points="-4,4 -4,-156.8 743.1966,-156.8 743.1966,4 -4,4"/>
<text text-anchor="middle" x="369.5983" y="-8.2" font-family="Times,serif" font-size="14.00" fill="#000000">CPU Flow</text>
<!-- inst_mem -->
<g id="node1" class="node">
<title>inst_mem</title>
<polygon fill="none" stroke="#000000" points="71.3327,-68.8 -.1111,-68.8 -.1111,-32.8 71.3327,-32.8 71.3327,-68.8"/>
<text text-anchor="middle" x="35.6108" y="-46.6" font-family="Times,serif" font-size="14.00" fill="#000000">inst_mem</text>
</g>
<!-- fetch -->
<g id="node2" class="node">
<title>fetch</title>
<polygon fill="none" stroke="#000000" points="181.4474,-98.8 127.4474,-98.8 127.4474,-62.8 181.4474,-62.8 181.4474,-98.8"/>
<text text-anchor="middle" x="154.4474" y="-76.6" font-family="Times,serif" font-size="14.00" fill="#000000">fetch</text>
</g>
<!-- inst_mem&#45;&gt;fetch -->
<g id="edge1" class="edge">
<title>inst_mem&#45;&gt;fetch</title>
<path fill="none" stroke="#000000" d="M71.2657,-59.801C85.8194,-63.475 102.6503,-67.724 117.3491,-71.4346"/>
<polygon fill="#000000" stroke="#000000" points="116.5778,-74.8496 127.1303,-73.9039 118.2912,-68.0626 116.5778,-74.8496"/>
<text text-anchor="middle" x="99.3345" y="-74" font-family="Times,serif" font-size="14.00" fill="#000000">bits</text>
</g>
<!-- decode -->
<g id="node3" class="node">
<title>decode</title>
<polygon fill="none" stroke="#000000" points="293.14,-99.8 237.8502,-99.8 237.8502,-63.8 293.14,-63.8 293.14,-99.8"/>
<text text-anchor="middle" x="265.4951" y="-77.6" font-family="Times,serif" font-size="14.00" fill="#000000">decode</text>
</g>
<!-- fetch&#45;&gt;decode -->
<g id="edge2" class="edge">
<title>fetch&#45;&gt;decode</title>
<path fill="none" stroke="#000000" d="M181.6127,-81.0446C195.4901,-81.1696 212.5982,-81.3237 227.7368,-81.46"/>
<polygon fill="#000000" stroke="#000000" points="227.8077,-84.9607 237.8388,-81.551 227.8708,-77.9609 227.8077,-84.9607"/>
<text text-anchor="middle" x="209.5603" y="-86" font-family="Times,serif" font-size="14.00" fill="#000000">inst</text>
</g>
<!-- register file -->
<g id="node4" class="node">
<title>register file</title>
<polygon fill="none" stroke="#000000" points="451.495,-101.8 371.2296,-101.8 371.2296,-65.8 451.495,-65.8 451.495,-101.8"/>
<text text-anchor="middle" x="411.3623" y="-79.6" font-family="Times,serif" font-size="14.00" fill="#000000">register file</text>
</g>
<!-- decode&#45;&gt;register file -->
<g id="edge3" class="edge">
<title>decode&#45;&gt;register file</title>
<path fill="none" stroke="#000000" d="M293.2749,-82.1809C312.414,-82.4433 338.3925,-82.7995 361.1104,-83.111"/>
<polygon fill="#000000" stroke="#000000" points="361.2355,-86.6129 371.2826,-83.2505 361.3316,-79.6136 361.2355,-86.6129"/>
<text text-anchor="middle" x="332.3065" y="-88" font-family="Times,serif" font-size="14.00" fill="#000000">address</text>
</g>
<!-- ALU -->
<g id="node5" class="node">
<title>ALU</title>
<polygon fill="none" stroke="#000000" points="605.5612,-101.8 551.5612,-101.8 551.5612,-65.8 605.5612,-65.8 605.5612,-101.8"/>
<text text-anchor="middle" x="578.5612" y="-79.6" font-family="Times,serif" font-size="14.00" fill="#000000">ALU</text>
</g>
<!-- register file&#45;&gt;ALU -->
<g id="edge4" class="edge">
<title>register file&#45;&gt;ALU</title>
<path fill="none" stroke="#000000" d="M451.8365,-83.8C479.1391,-83.8 514.8925,-83.8 541.4592,-83.8"/>
<polygon fill="#000000" stroke="#000000" points="541.512,-87.3001 551.512,-83.8 541.5119,-80.3001 541.512,-87.3001"/>
<text text-anchor="middle" x="501.4949" y="-88" font-family="Times,serif" font-size="14.00" fill="#000000">register file</text>
</g>
<!-- data_mem -->
<g id="node6" class="node">
<title>data_mem</title>
<polygon fill="none" stroke="#000000" points="739.3551,-152.8 664.7225,-152.8 664.7225,-116.8 739.3551,-116.8 739.3551,-152.8"/>
<text text-anchor="middle" x="702.0388" y="-130.6" font-family="Times,serif" font-size="14.00" fill="#000000">data_mem</text>
</g>
<!-- ALU&#45;&gt;data_mem -->
<g id="edge5" class="edge">
<title>ALU&#45;&gt;data_mem</title>
<path fill="none" stroke="#000000" d="M605.6971,-93.216C618.3151,-97.7454 633.4644,-103.3995 646.881,-109 649.7163,-110.1836 652.6187,-111.4309 655.5365,-112.7123"/>
<polygon fill="#000000" stroke="#000000" points="654.2873,-115.9878 664.8442,-116.8843 657.1506,-109.6002 654.2873,-115.9878"/>
<text text-anchor="middle" x="635.2211" y="-113" font-family="Times,serif" font-size="14.00" fill="#000000">data</text>
</g>
<!-- PC -->
<g id="node7" class="node">
<title>PC</title>
<polygon fill="none" stroke="#000000" points="729.0388,-60.8 675.0388,-60.8 675.0388,-24.8 729.0388,-24.8 729.0388,-60.8"/>
<text text-anchor="middle" x="702.0388" y="-38.6" font-family="Times,serif" font-size="14.00" fill="#000000">PC</text>
</g>
<!-- ALU&#45;&gt;PC -->
<g id="edge7" class="edge">
<title>ALU&#45;&gt;PC</title>
<path fill="none" stroke="#000000" d="M605.6589,-74.8024C623.1905,-68.9811 646.2321,-61.3303 665.3898,-54.9691"/>
<polygon fill="#000000" stroke="#000000" points="666.6168,-58.2496 675.0043,-51.7766 664.4109,-51.6063 666.6168,-58.2496"/>
<text text-anchor="middle" x="635.2211" y="-73" font-family="Times,serif" font-size="14.00" fill="#000000">PC</text>
</g>
<!-- data_mem&#45;&gt;register file -->
<g id="edge6" class="edge">
<title>data_mem&#45;&gt;register file</title>
<path fill="none" stroke="#000000" d="M664.4976,-132.5754C618.1139,-129.2308 537.0408,-121.433 469.4286,-104.8 466.7872,-104.1502 464.0989,-103.4229 461.399,-102.6398"/>
<polygon fill="#000000" stroke="#000000" points="462.223,-99.2307 451.6346,-99.5991 460.1417,-105.9142 462.223,-99.2307"/>
<text text-anchor="middle" x="578.5612" y="-131" font-family="Times,serif" font-size="14.00" fill="#000000">data</text>
</g>
<!-- PC&#45;&gt;inst_mem -->
<g id="edge9" class="edge">
<title>PC&#45;&gt;inst_mem</title>
<path fill="none" stroke="#000000" d="M674.608,-40.002C649.6074,-37.695 611.6435,-34.8 578.5612,-34.8 154.4474,-34.8 154.4474,-34.8 154.4474,-34.8 130.1861,-34.8 103.3857,-38.116 81.3862,-41.7288"/>
<polygon fill="#000000" stroke="#000000" points="80.5883,-38.3145 71.3244,-43.4556 81.7724,-45.2136 80.5883,-38.3145"/>
<text text-anchor="middle" x="332.3065" y="-39" font-family="Times,serif" font-size="14.00" fill="#000000">PC</text>
</g>
<!-- PC&#45;&gt;PC -->
<g id="edge8" class="edge">
<title>PC&#45;&gt;PC</title>
<path fill="none" stroke="#000000" d="M690.0989,-60.9527C688.2619,-70.3391 692.2419,-78.8 702.0388,-78.8 708.0088,-78.8 711.8187,-75.6581 713.4686,-71.0796"/>
<polygon fill="#000000" stroke="#000000" points="716.9711,-71.1162 713.9787,-60.9527 709.98,-70.7639 716.9711,-71.1162"/>
<text text-anchor="middle" x="702.0388" y="-83" font-family="Times,serif" font-size="14.00" fill="#000000">PC</text>
</g>
</g>
</svg>
