<?xml version="1.0" encoding="UTF-8" standalone="no"?>
<!DOCTYPE svg PUBLIC "-//W3C//DTD SVG 1.1//EN"
 "http://www.w3.org/Graphics/SVG/1.1/DTD/svg11.dtd">
<!-- Generated by graphviz version 2.40.1 (20161225.0304)
 -->
<!-- Title: CPU Pages: 1 -->
<svg width="454pt" height="176pt"
 viewBox="0.00 0.00 454.15 175.66" xmlns="http://www.w3.org/2000/svg" xmlns:xlink="http://www.w3.org/1999/xlink">
<g id="graph0" class="graph" transform="scale(1 1) rotate(0) translate(4 171.6606)">
<title>CPU</title>
<polygon fill="#ffffff" stroke="transparent" points="-4,4 -4,-171.6606 450.1516,-171.6606 450.1516,4 -4,4"/>
<text text-anchor="middle" x="223.0758" y="-8.2" font-family="Times,serif" font-size="14.00" fill="#000000">CPU Flow</text>
<!-- pc -->
<g id="node1" class="node">
<title>pc</title>
<polygon fill="none" stroke="#000000" points="54,-121.6606 0,-121.6606 0,-85.6606 54,-85.6606 54,-121.6606"/>
<text text-anchor="middle" x="27" y="-99.4606" font-family="Times,serif" font-size="14.00" fill="#000000">pc</text>
</g>
<!-- pc&#45;&gt;pc -->
<g id="edge2" class="edge">
<title>pc&#45;&gt;pc</title>
<path fill="none" stroke="#000000" d="M10.7183,-121.8133C8.2134,-131.1997 13.6406,-139.6606 27,-139.6606 35.1409,-139.6606 40.3362,-136.5187 42.5861,-131.9402"/>
<polygon fill="#000000" stroke="#000000" points="46.0881,-132.0297 43.2817,-121.8133 39.1046,-131.5499 46.0881,-132.0297"/>
</g>
<!-- mem -->
<g id="node2" class="node">
<title>mem</title>
<polygon fill="none" stroke="#000000" points="144,-121.6606 90,-121.6606 90,-85.6606 144,-85.6606 144,-121.6606"/>
<text text-anchor="middle" x="117" y="-99.4606" font-family="Times,serif" font-size="14.00" fill="#000000">mem</text>
</g>
<!-- pc&#45;&gt;mem -->
<g id="edge1" class="edge">
<title>pc&#45;&gt;mem</title>
<path fill="none" stroke="#000000" d="M54.003,-103.6606C62.0277,-103.6606 70.9665,-103.6606 79.5309,-103.6606"/>
<polygon fill="#000000" stroke="#000000" points="79.7051,-107.1607 89.705,-103.6606 79.705,-100.1607 79.7051,-107.1607"/>
</g>
<!-- reg_file -->
<g id="node5" class="node">
<title>reg_file</title>
<polygon fill="none" stroke="#000000" points="445.9192,-98.6606 386.8524,-98.6606 386.8524,-62.6606 445.9192,-62.6606 445.9192,-98.6606"/>
<text text-anchor="middle" x="416.3858" y="-76.4606" font-family="Times,serif" font-size="14.00" fill="#000000">reg_file</text>
</g>
<!-- pc&#45;&gt;reg_file -->
<g id="edge11" class="edge">
<title>pc&#45;&gt;reg_file</title>
<path fill="none" stroke="#000000" d="M54.2233,-90.844C65.1838,-85.9883 78.0406,-80.6701 90,-76.6606 170.8651,-49.5502 191.6398,-40.9582 276.3044,-30.6606 309.0919,-26.6727 319.3201,-20.1134 350.62,-30.6606 365.8599,-35.796 380.3661,-46.0246 391.8577,-55.8997"/>
<polygon fill="#000000" stroke="#000000" points="389.5331,-58.5163 399.3039,-62.613 394.2204,-53.3173 389.5331,-58.5163"/>
</g>
<!-- decoder -->
<g id="node4" class="node">
<title>decoder</title>
<polygon fill="none" stroke="#000000" points="240.4574,-121.6606 179.847,-121.6606 179.847,-85.6606 240.4574,-85.6606 240.4574,-121.6606"/>
<text text-anchor="middle" x="210.1522" y="-99.4606" font-family="Times,serif" font-size="14.00" fill="#000000">decoder</text>
</g>
<!-- mem&#45;&gt;decoder -->
<g id="edge4" class="edge">
<title>mem&#45;&gt;decoder</title>
<path fill="none" stroke="#000000" d="M144.4449,-103.6606C152.3809,-103.6606 161.2139,-103.6606 169.7636,-103.6606"/>
<polygon fill="#000000" stroke="#000000" points="169.9727,-107.1607 179.9727,-103.6606 169.9727,-100.1607 169.9727,-107.1607"/>
</g>
<!-- alu -->
<g id="node3" class="node">
<title>alu</title>
<polygon fill="none" stroke="#000000" points="340.4622,-167.6606 286.4622,-167.6606 286.4622,-131.6606 340.4622,-131.6606 340.4622,-167.6606"/>
<text text-anchor="middle" x="313.4622" y="-145.4606" font-family="Times,serif" font-size="14.00" fill="#000000">alu</text>
</g>
<!-- alu&#45;&gt;pc -->
<g id="edge3" class="edge">
<title>alu&#45;&gt;pc</title>
<path fill="none" stroke="#000000" d="M286.1762,-150.1204C243.6133,-150.2205 159.1267,-147.9333 90,-130.6606 81.1927,-128.4599 72.0398,-125.1731 63.5294,-121.6429"/>
<polygon fill="#000000" stroke="#000000" points="64.8123,-118.3841 54.2466,-117.5987 62.0164,-124.8015 64.8123,-118.3841"/>
</g>
<!-- data_mem -->
<g id="node6" class="node">
<title>data_mem</title>
<polygon fill="none" stroke="#000000" points="350.7785,-75.6606 276.1459,-75.6606 276.1459,-39.6606 350.7785,-39.6606 350.7785,-75.6606"/>
<text text-anchor="middle" x="313.4622" y="-53.4606" font-family="Times,serif" font-size="14.00" fill="#000000">data_mem</text>
</g>
<!-- alu&#45;&gt;data_mem -->
<g id="edge7" class="edge">
<title>alu&#45;&gt;data_mem</title>
<path fill="none" stroke="#000000" d="M331.1008,-131.5304C342.5684,-115.9093 344.3946,-100.2882 336.5793,-84.6671"/>
<polygon fill="#000000" stroke="#000000" points="339.4636,-82.6757 331.2456,-75.9887 333.4999,-86.341 339.4636,-82.6757"/>
</g>
<!-- decoder&#45;&gt;alu -->
<g id="edge9" class="edge">
<title>decoder&#45;&gt;alu</title>
<path fill="none" stroke="#000000" d="M240.3114,-117.0894C251.7781,-122.195 264.9648,-128.0666 276.9565,-133.406"/>
<polygon fill="#000000" stroke="#000000" points="275.7027,-136.679 286.2617,-137.5493 278.5501,-130.2842 275.7027,-136.679"/>
</g>
<!-- decoder&#45;&gt;reg_file -->
<g id="edge5" class="edge">
<title>decoder&#45;&gt;reg_file</title>
<path fill="none" stroke="#000000" d="M240.5827,-100.2669C276.6846,-96.2406 336.9715,-89.5172 376.7061,-85.0858"/>
<polygon fill="#000000" stroke="#000000" points="377.2837,-88.5432 386.8341,-83.9563 376.5078,-81.5863 377.2837,-88.5432"/>
</g>
<!-- decoder&#45;&gt;data_mem -->
<g id="edge10" class="edge">
<title>decoder&#45;&gt;data_mem</title>
<path fill="none" stroke="#000000" d="M240.3114,-90.2318C248.6216,-86.5317 257.8351,-82.4292 266.8424,-78.4186"/>
<polygon fill="#000000" stroke="#000000" points="268.3962,-81.5581 276.1079,-74.2931 265.5488,-75.1634 268.3962,-81.5581"/>
</g>
<!-- reg_file&#45;&gt;alu -->
<g id="edge6" class="edge">
<title>reg_file&#45;&gt;alu</title>
<path fill="none" stroke="#000000" d="M389.5244,-98.6685C377.1387,-106.9719 362.2669,-116.9419 348.9715,-125.8552"/>
<polygon fill="#000000" stroke="#000000" points="346.8614,-123.056 340.5042,-131.5317 350.7593,-128.8703 346.8614,-123.056"/>
</g>
<!-- data_mem&#45;&gt;alu -->
<g id="edge12" class="edge">
<title>data_mem&#45;&gt;alu</title>
<path fill="none" stroke="#000000" d="M295.6788,-75.9887C284.2927,-91.6098 282.5479,-107.2309 290.4446,-122.852"/>
<polygon fill="#000000" stroke="#000000" points="287.5804,-124.8745 295.8236,-131.5304 293.5302,-121.1868 287.5804,-124.8745"/>
</g>
<!-- data_mem&#45;&gt;reg_file -->
<g id="edge8" class="edge">
<title>data_mem&#45;&gt;reg_file</title>
<path fill="none" stroke="#000000" d="M350.9111,-66.0292C359.2471,-67.892 368.1142,-69.8735 376.5425,-71.7569"/>
<polygon fill="#000000" stroke="#000000" points="376.0178,-75.226 386.5404,-73.9912 377.5445,-68.3945 376.0178,-75.226"/>
</g>
</g>
</svg>
